<?xml version="1.0" encoding="UTF-8"?>
<svg id="Layer_1" data-name="Layer 1" xmlns="http://www.w3.org/2000/svg" viewBox="0 0 2000 2000">
  <defs>
    <style>
      .cls-1 {
        fill: #ffb612;
      }

      .cls-2 {
        fill: #fff;
      }
    </style>
  </defs>
  <g>
    <path class="cls-1" d="M1303.3,1114.61v-223.63c0-15.44-12.51-27.95-27.95-27.95h-550.69c-15.44,0-27.95-12.51-27.95-27.95v-505.97c0-15.44,12.51-27.95,27.95-27.95h550.69c15.44,0,27.95-12.51,27.95-27.95,0-76.39-22.84-137.41-68.49-183.1-45.69-45.64-106.7-68.49-183.1-68.49H445.12c-15.44,0-27.95,12.51-27.95,27.95v1900.86c0,15.44,12.51,27.95,27.95,27.95h223.63c15.44,0,27.95-12.51,27.95-27.95v-779.91c0-15.44,12.51-27.95,27.95-27.95h550.69c15.44,0,27.95-12.51,27.95-27.95Z"/>
    <path class="cls-1" d="M1331.25,1142.56h0c-15.44,0-27.95,12.51-27.95,27.95v500.38c0,15.44-12.51,27.95-27.95,27.95h-511.16c-24.9,0-37.37,30.11-19.77,47.72l223.63,223.63c5.24,5.24,12.35,8.19,19.77,8.19h343.43c76.39,0,137.41-22.8,183.1-68.49,45.64-45.64,68.49-106.66,68.49-183.1v-332.65c0-76.39-22.84-137.41-68.49-183.1-45.69-45.65-106.7-68.49-183.1-68.49Z"/>
    <path class="cls-1" d="M1514.35,369.64c-45.69-45.64-106.7-68.49-183.1-68.49h0c-15.44,0-27.95,12.51-27.95,27.95v505.97c0,15.44,12.51,27.95,27.95,27.95h223.63c15.44,0,27.95-12.51,27.95-27.95v-282.33c0-76.39-22.84-137.41-68.49-183.1Z"/>
  </g>
  <circle class="cls-2" cx="1012.29" cy="600.8" r="54.14"/>
</svg>